<svg width="188" height="209" viewBox="0 0 188 209" fill="none" xmlns="http://www.w3.org/2000/svg">
<path d="M82.8413 22.7144C80.5836 22.9734 76.9565 23.5656 74.6987 24.0098C72.441 24.4539 68.8139 25.4162 66.5562 26.1194C64.2984 26.8597 60.8934 28.1181 58.9688 28.9323C57.0441 29.7096 53.8611 31.19 51.9365 32.1523C50.0119 33.1146 46.4958 35.1133 44.1641 36.5938C41.8323 38.0742 39.2415 39.7768 38.4272 40.406C37.613 41.0352 35.1332 43.1818 32.8755 45.1435C30.6178 47.1051 27.7309 49.881 26.3984 51.2504C25.066 52.6568 22.2161 55.8769 20.1065 58.3937C17.9598 60.9104 15.9611 63.3532 15.665 63.7974C15.369 64.2415 14.5177 65.5369 13.7774 66.6103C13.0742 67.7206 11.2236 71.0887 9.66914 74.1606C8.11465 77.2326 6.19005 81.7851 5.37579 84.3389C4.52452 86.8927 3.5252 90.4828 3.11807 92.2964C2.74796 94.11 2.04473 97.8852 1.56358 100.624C0.860354 104.806 0.749324 107.101 0.712312 114.688C0.6753 120.758 0.860354 124.793 1.19346 126.902C1.45254 128.642 1.9337 130.641 2.22979 131.344C2.48888 132.047 2.71094 133.083 2.71094 133.675C2.71094 134.231 2.97003 135.97 3.30313 137.562C3.59923 139.116 4.67256 142.817 5.63487 145.778C6.63418 148.739 8.66983 153.736 10.1873 156.882C11.7048 160.028 14.2956 164.617 15.9241 167.06C17.5897 169.503 20.5136 173.352 22.4012 175.573C24.3258 177.793 27.8789 181.458 30.3217 183.641C32.7274 185.862 36.3176 188.86 38.2422 190.303C40.1668 191.747 43.4608 194.005 45.5705 195.263C47.6432 196.558 50.9002 198.372 52.7508 199.297C54.6384 200.26 57.0441 201.333 58.0435 201.74C59.0798 202.147 61.5596 203.072 63.5952 203.776C65.6309 204.479 69.5541 205.626 72.293 206.292C75.0318 206.959 79.1031 207.847 81.3608 208.217C84.5068 208.698 87.4678 208.846 94.3149 208.846C101.717 208.846 103.975 208.698 107.824 208.032C110.378 207.625 114.375 206.737 116.707 206.144C119.039 205.552 122.555 204.479 124.479 203.776C126.404 203.035 130.179 201.481 132.807 200.297C135.435 199.075 139.21 197.114 141.135 195.929C143.059 194.745 145.576 193.079 146.687 192.265C147.797 191.451 149.981 189.785 151.498 188.564C153.016 187.342 156.495 184.159 159.196 181.495C161.935 178.867 165.377 175.203 166.858 173.352C168.338 171.501 170.633 168.43 171.966 166.505C173.261 164.58 175.075 161.656 176 160.028C176.888 158.399 178.48 155.216 179.516 152.996C180.515 150.775 181.996 147.074 182.736 144.853C183.513 142.632 184.624 138.783 185.179 136.34C185.771 133.898 186.511 130.307 186.844 128.383C187.14 126.458 187.547 122.313 187.695 119.204L187.955 113.578C186.067 113.578 185.919 113.726 185.808 114.8C185.697 115.873 185.697 115.836 185.475 114.318C185.327 113.393 185.031 110.913 184.809 108.767C184.587 106.62 184.142 103.474 183.809 101.734C183.513 99.9948 182.847 96.9229 182.366 94.8872C181.848 92.8516 181.107 89.9647 180.626 88.4842L179.812 85.7823C177.221 86.1895 176.444 86.3005 176.407 86.3375C176.333 86.3375 176.74 88.8173 177.221 91.8522C177.924 95.9605 178.146 98.6254 178.146 102.771C178.146 105.769 177.887 110.469 177.591 113.208C177.295 115.947 176.703 120.129 176.259 122.461C175.815 124.793 175.334 126.976 175.186 127.272C175.038 127.569 174.556 127.902 174.075 128.013C173.409 128.161 173.076 128.716 172.447 130.604C172.04 131.936 171.299 133.601 170.855 134.305C170.411 135.008 169.264 137.081 168.301 138.931C167.339 140.782 165.6 143.669 164.415 145.408C163.194 147.148 161.38 149.628 160.344 150.96C159.345 152.292 157.198 154.698 155.643 156.29C154.089 157.918 151.202 160.509 149.277 162.026C147.353 163.581 144.355 165.728 142.615 166.838C140.876 167.948 137.804 169.651 135.768 170.613C133.732 171.575 129.809 173.019 127.07 173.833C124.331 174.684 120.334 175.684 118.188 176.091C116.041 176.498 113.154 176.942 111.71 177.053C110.267 177.201 108.12 177.46 106.899 177.645C105.381 177.904 102.495 177.904 97.8311 177.608C94.0559 177.349 90.2437 176.942 89.3184 176.683C88.3931 176.387 86.6535 175.832 85.4321 175.462C84.2107 175.055 82.3602 174.462 81.3608 174.166C80.3245 173.833 77.5116 172.834 75.0689 171.909C72.6261 170.983 69.11 169.466 67.2964 168.578C65.4828 167.652 62.3738 165.95 60.4492 164.802C58.5246 163.655 55.5267 161.582 53.7871 160.213C52.0476 158.806 49.4567 156.401 48.0503 154.772C46.6068 153.181 44.2011 150.405 42.6466 148.554C41.1291 146.704 39.5006 144.594 39.0565 143.854C38.5013 142.891 37.9831 142.447 37.3909 142.447C36.9468 142.447 36.1325 142.003 35.5773 141.448C35.0222 140.856 34.541 140.116 34.541 139.782C34.541 139.412 34.7631 139.005 35.0592 138.857C35.4663 138.635 35.2072 137.784 33.7638 134.786C32.7645 132.676 31.7281 130.085 31.432 129.049C31.173 127.976 30.7658 126.754 30.5438 126.347C30.3587 125.94 29.9516 124.534 29.7295 123.201C29.4704 121.869 29.1003 120.61 28.9152 120.425C28.7302 120.203 28.6191 120.425 28.6191 120.98C28.6191 121.573 28.5081 121.758 28.286 121.536C28.101 121.351 27.5828 119.5 27.1757 117.464C26.7686 115.429 26.3244 111.505 26.1764 108.767C26.0283 105.658 26.1023 102.104 26.3614 99.3286C26.6205 96.7008 27.5088 92.0743 28.4711 88.04C29.3964 84.2648 30.7288 79.7864 31.395 78.0469C32.0612 76.3073 33.3937 73.3094 34.356 71.3848C35.3183 69.4602 37.2799 66.1291 38.7233 63.9824C40.1298 61.8357 42.4985 58.5787 43.942 56.7651C45.3484 54.9516 47.9763 51.9536 49.7158 50.14C51.4554 48.3265 54.5273 45.6246 56.563 44.0701C58.5986 42.5526 60.2642 41.0722 60.2642 40.8131C60.2642 40.554 60.8564 39.8878 61.5596 39.3696C62.2628 38.8145 64.0023 37.6301 65.4458 36.7048C66.8893 35.7795 69.8502 34.114 72.1079 33.0036C74.3656 31.8933 77.7707 30.3758 79.6953 29.6726C81.6199 28.9693 85.5432 27.7479 88.3931 26.9707C91.243 26.1935 95.5363 25.2311 97.9421 24.861C101.236 24.3429 102.272 24.0468 102.272 23.6396C102.272 23.3436 102.087 22.8624 101.828 22.6033C101.458 22.2702 99.5336 22.1592 94.1299 22.1962C90.1696 22.2332 85.099 22.4553 82.8413 22.7144Z" fill="#1F2A43"/>
<path d="M147.131 1.17354C146.946 1.39561 146.168 2.76504 145.465 4.2085C144.762 5.61494 143.207 8.3168 142.06 10.1304C140.913 11.9439 138.507 15.386 136.767 17.6808C134.991 20.0125 132.03 23.6026 130.179 25.6383C128.292 27.7109 125.664 30.5238 124.331 31.9673C122.962 33.4107 121.889 34.7062 121.889 34.9282C121.889 35.1503 122.407 36.2236 122.999 37.334C123.628 38.4443 124.109 39.8878 124.109 40.48C124.109 41.2942 124.405 41.8124 125.22 42.4046C125.886 42.9228 126.33 43.589 126.33 44.0701C126.293 44.5513 126.552 45.1805 126.885 45.4766C127.218 45.7727 127.477 46.1428 127.44 46.2908C127.44 46.4759 127.922 47.2901 128.477 48.1414C129.069 49.0297 129.661 50.14 129.809 50.6582C129.994 51.1764 130.438 51.9166 130.808 52.3237C131.179 52.7309 131.808 53.6562 132.215 54.3594C132.622 55.0626 133.177 56.173 133.473 56.7651C133.769 57.3573 134.288 58.1346 134.621 58.4307C134.954 58.7268 135.25 59.2819 135.213 59.615C135.213 59.9852 135.62 60.9475 136.138 61.7617C136.656 62.576 137.063 63.4643 137.063 63.6863C137.063 63.9454 137.397 64.8337 137.804 65.6479C138.211 66.4622 138.544 67.5726 138.544 68.1277C138.544 68.7199 138.729 69.5342 138.988 69.9783C139.247 70.4595 139.654 71.4218 139.913 72.125C140.172 72.8282 140.395 73.7535 140.395 74.1606C140.432 74.5678 141.061 75.5301 141.801 76.2703C142.541 77.0106 143.467 77.6397 143.8 77.6768C144.244 77.6768 144.762 76.9735 145.428 75.5301C145.946 74.3827 146.798 72.3471 147.279 71.0146C147.797 69.6822 148.5 67.0174 148.907 65.0928C149.314 63.0571 149.721 59.0969 149.87 55.6548C149.981 52.2127 149.907 47.6603 149.647 44.7363C149.425 41.9975 149.24 39.3696 149.277 38.8885C149.277 38.4443 149.129 36.6308 148.907 34.8172C148.722 33.0406 148.426 29.9316 148.278 27.896C148.13 25.8604 148.056 18.9021 148.093 12.4251C148.167 5.54092 148.056 0.692383 147.834 0.692383C147.649 0.692383 147.353 0.914452 147.131 1.13652V1.17354Z" fill="#5FCBD5"/>
<path d="M106.27 49.3258C104.012 51.5835 101.384 54.3224 100.459 55.4327C98.8303 57.3203 98.7933 57.4313 99.4965 57.8385C99.9037 58.0605 100.644 58.6897 101.162 59.2079C101.68 59.7631 102.569 60.2442 103.161 60.3183C104.049 60.4293 104.419 60.7994 105.196 62.3909C105.715 63.4272 107.269 65.5739 108.675 67.0914L111.155 69.9043C113.487 67.1654 115.375 65.3519 116.818 64.0564C118.298 62.798 120.704 60.9475 122.148 59.9852C124.294 58.6157 124.85 58.0605 124.85 57.3203C124.85 56.8021 124.627 55.9139 124.331 55.2847C124.035 54.6925 123.369 53.7672 122.814 53.249C122.296 52.7309 121.889 52.1757 121.889 51.9536C121.889 51.7685 120.778 50.4731 119.409 49.1407C118.002 47.8083 116.3 46.4389 115.597 46.1058C114.893 45.7727 113.413 45.4395 112.34 45.3655L110.378 45.2175L106.27 49.3258ZM125.59 66.4622C125.59 67.8687 125.331 70.5705 124.998 72.4951C124.665 74.4197 123.887 77.4917 123.295 79.3423C122.703 81.1559 121.296 84.3759 120.186 86.4485L118.187 90.2607C120.26 91.9633 120.408 92.3704 120.408 93.8509C120.408 94.8502 120.26 95.7755 120.038 95.9976C119.816 96.1826 119.705 97.256 119.742 98.3663C119.816 99.6247 120.038 100.513 120.408 100.735C120.852 101.031 121.852 100.439 124.85 98.2183C126.996 96.6268 129.846 94.369 131.253 93.1476L133.732 91.001C133.732 81.3039 133.621 80.4896 132.992 79.4163C132.585 78.7871 132.252 77.6768 132.252 77.0105C132.252 76.3813 132.067 74.9379 131.845 73.8645C131.623 72.8282 131.327 71.7549 131.179 71.5698C131.031 71.3477 130.697 70.5335 130.475 69.7192C130.253 68.905 129.957 67.6096 129.846 66.8323C129.735 65.833 129.365 65.2408 128.551 64.7227C127.959 64.3155 127.033 63.9824 126.515 63.9824C125.627 63.9824 125.59 64.0564 125.59 66.4622Z" fill="#4EB7CB"/>
<path d="M96.5727 60.7624C95.4993 62.4279 94.1669 64.6856 93.6118 65.722C93.0936 66.7953 92.1683 69.1271 91.5391 70.9036C90.9099 72.8282 90.2807 75.7521 90.0216 78.0469C89.7995 80.1936 89.6885 84.1908 89.7995 86.9297C89.9106 90.0757 90.2437 93.1477 90.7248 95.2573C91.169 97.0709 92.0943 100.772 92.8345 103.4C93.5747 106.028 94.9812 110.691 96.0175 113.763C97.0538 116.798 97.9421 119.537 98.0531 119.759C98.1272 120.055 99.6817 118.834 101.791 116.798C103.79 114.948 106.936 112.135 108.787 110.617C110.6 109.1 114.079 106.324 116.448 104.51C120.223 101.586 120.667 101.105 120.223 100.624C119.89 100.291 119.668 99.2916 119.668 98.1072C119.668 97.0709 119.853 96.1086 120.038 95.9976C120.223 95.8865 120.408 95.0353 120.408 94.0359C120.408 92.7035 120.223 92.1113 119.594 91.4821C119.113 91.001 118.558 90.6309 118.373 90.6309C118.188 90.5938 117.262 91.5562 116.374 92.7405C115.449 93.9249 113.228 96.4417 111.377 98.3293L108.009 101.734C103.79 101.734 103.457 101.623 102.384 100.55C101.199 99.3656 101.162 99.2546 101.162 95.9976C101.162 94.184 101.421 91.2601 101.754 89.5205C102.087 87.781 102.754 85.2271 103.272 83.7837C103.79 82.3402 104.752 80.1195 105.418 78.7871C106.085 77.4547 107.565 74.9749 108.713 73.2354C109.86 71.4958 110.785 69.9783 110.785 69.7933C110.785 69.6452 109.749 68.3498 108.453 66.9063C107.195 65.4999 105.715 63.4643 105.196 62.3909C104.382 60.7254 104.123 60.4663 103.087 60.3553C102.347 60.3183 101.754 60.0222 101.532 59.541C101.347 59.1339 100.644 58.5417 100.052 58.2456C99.4596 57.9495 98.8674 57.6904 98.7564 57.6904C98.6453 57.6904 97.683 59.0599 96.5727 60.7254V60.7624Z" fill="#3EA1C3"/>
<path d="M122.074 60.0592C120.445 61.1695 118.002 63.0201 116.633 64.2045C115.264 65.4259 113.302 67.3875 112.229 68.6089C111.155 69.8303 109.416 72.162 108.342 73.7905C107.306 75.419 105.937 77.7508 105.307 78.9722C104.715 80.1936 103.79 82.3772 103.272 83.7837C102.754 85.2271 102.087 87.781 101.754 89.5205C101.421 91.2601 101.162 94.184 101.162 95.9976C101.162 99.2546 101.162 99.3656 102.346 100.513C103.457 101.586 103.79 101.734 105.789 101.734H108.009C112.969 96.7008 115.301 94.11 116.374 92.6665C117.484 91.2601 119.224 88.4102 120.297 86.3745C121.333 84.3389 122.666 81.1929 123.295 79.3423C123.887 77.5287 124.665 74.4197 124.998 72.4951C125.368 70.3484 125.59 66.8693 125.59 63.5383C125.59 60.5033 125.479 58.0605 125.294 58.0605C125.146 58.0605 123.702 58.9488 122.074 60.0592Z" fill="#146C98"/>
<path opacity="0.9" d="M104.123 23.2695C104.123 23.9357 104.382 24.0098 106.714 24.0098C108.157 24.0098 109.379 23.8617 109.49 23.6396C109.601 23.4176 108.824 23.1215 107.824 22.8994C106.788 22.6773 105.567 22.5293 105.048 22.5293C104.382 22.5293 104.123 22.7144 104.123 23.2695ZM168.153 64.2785C168.153 64.4266 168.672 65.3889 169.227 66.3882C169.819 67.4245 170.966 69.8303 171.78 71.7549C172.595 73.6795 173.557 76.3443 173.964 77.6768C174.371 79.0092 174.963 81.0078 175.297 82.1182C175.593 83.2285 175.963 84.672 176.111 85.2642C176.333 86.3375 176.407 86.3745 177.887 86.1154C178.739 85.9674 179.516 85.7453 179.627 85.6343C179.738 85.5232 179.405 84.4129 178.924 83.1175C178.48 81.8591 177.406 79.3053 176.592 77.4917C175.778 75.6781 174.112 72.4211 172.854 70.2744C171.632 68.1277 170.189 65.833 169.671 65.2038C169.153 64.5376 168.597 63.9824 168.412 63.9824C168.264 63.9824 168.153 64.0935 168.153 64.2785ZM185.919 110.802C185.919 113.504 185.956 113.578 186.844 113.578C187.696 113.578 187.77 113.43 187.77 111.987C187.77 111.135 187.659 109.877 187.51 109.211C187.313 108.421 186.992 108.026 186.548 108.026C185.993 108.026 185.919 108.396 185.919 110.802ZM174.149 124.423C173.927 125.459 173.594 126.754 173.446 127.235C173.187 128.013 173.261 128.087 174.038 127.976C174.519 127.902 175.112 127.532 175.334 127.198C175.63 126.717 175.63 126.347 175.26 125.792C174.926 125.237 174.926 124.719 175.186 123.867C175.408 123.201 175.556 122.609 175.556 122.572C175.556 122.498 175.334 122.461 175.075 122.461C174.778 122.461 174.408 123.238 174.149 124.423ZM34.7261 139.005C34.541 139.116 34.43 139.486 34.504 139.819C34.541 140.153 35.0222 140.856 35.5774 141.448C36.1325 142.003 36.8728 142.447 37.2059 142.447C37.576 142.447 37.8721 142.336 37.8721 142.188C37.8721 142.003 37.3909 141.189 36.8358 140.338C36.2806 139.449 35.6514 138.746 35.4293 138.746C35.2072 138.746 34.9112 138.857 34.7261 139.005Z" fill="#1B2337"/>
<path opacity="0.99" d="M185.401 98.3293C185.512 99.0695 185.771 99.8468 185.956 100.069C186.178 100.291 186.289 100.254 186.289 99.8838C186.289 99.5877 186.215 98.7734 186.141 98.1072C186.03 97.478 185.771 96.9229 185.549 96.9229C185.29 96.9229 185.216 97.367 185.401 98.2923V98.3293ZM185.993 104.547C185.919 107.841 185.956 108.063 186.659 108.063C187.325 108.063 187.399 107.878 187.214 105.917C187.103 104.769 186.955 103.178 186.881 102.401C186.77 101.66 186.585 101.031 186.4 101.031C186.252 101.031 186.067 102.623 185.993 104.547ZM176 107.397C176.111 107.656 175.963 110.284 175.704 113.245C175.445 116.206 175.075 119.5 174.926 120.573C174.704 122.017 174.741 122.498 175.075 122.498C175.334 122.498 175.63 121.943 175.741 121.277C175.852 120.647 176.074 118.353 176.296 116.206C176.481 114.059 176.629 111.098 176.666 109.618C176.666 107.841 176.518 106.953 176.222 106.953C176 106.953 175.889 107.175 176 107.397Z" fill="#060810"/>
<path opacity="0.99" d="M102.124 23.2695C102.235 23.7877 102.569 24.0098 103.198 24.0098C103.864 24.0098 104.123 23.8247 104.123 23.2695C104.123 22.7144 103.864 22.5293 103.05 22.5293C102.198 22.5293 102.013 22.6773 102.124 23.2695Z" fill="#1A233A"/>
<path opacity="0.13" d="M63.1141 38.1852C62.4849 38.6294 61.9297 39.1106 61.9297 39.2586C61.9297 39.4437 62.2258 39.6287 62.5959 39.7027C62.929 39.7768 63.6322 39.5547 64.1134 39.2216C64.7796 38.7774 64.8906 38.4813 64.6315 38.0002C64.3354 37.371 64.2244 37.408 63.1141 38.1852ZM37.0578 67.2024C36.7247 67.2765 35.5773 69.016 34.578 71.0517C33.5417 73.0503 32.7274 74.8269 32.8015 74.9379C32.8385 75.0489 33.2086 75.0489 33.6157 74.9379C34.0229 74.8269 34.6891 74.1236 35.0592 73.3464C35.4663 72.5691 35.8734 71.3478 36.0215 70.6445C36.1325 69.9413 36.4286 69.3491 36.6877 69.3491C36.9838 69.3491 37.4279 68.942 37.687 68.4238C37.9831 67.9057 38.2052 67.3875 38.2422 67.2024C38.2422 67.0544 38.1311 66.9804 37.9831 66.9804C37.798 67.0174 37.3909 67.0914 37.0578 67.2024ZM26.2504 100.698C26.1394 101.364 26.0283 102.142 26.0283 102.364C26.0283 102.623 26.2874 102.845 26.5835 102.845C26.8796 102.845 27.2497 102.623 27.3607 102.364C27.5088 102.142 27.5088 101.364 27.4348 100.698C27.3237 100.069 27.0646 99.5137 26.8796 99.5137C26.6575 99.5137 26.3614 100.069 26.2504 100.698ZM177.887 104.88C177.887 106.509 177.961 107.101 178.035 106.176C178.109 105.25 178.109 103.918 178.035 103.215C177.961 102.512 177.887 103.252 177.887 104.88ZM31.0249 127.346C31.0989 127.606 31.247 128.272 31.358 128.827C31.469 129.419 31.7651 129.789 31.9502 129.678C32.1723 129.567 32.3203 129.123 32.3203 128.642C32.3203 128.198 32.1352 127.606 31.8762 127.346C31.6171 127.087 31.284 126.902 31.1359 126.902C30.9879 126.902 30.9509 127.124 31.0249 127.346Z" fill="#333E56"/>
<path opacity="0.44" d="M60.7823 39.8878C60.3382 40.2209 60.0791 40.7021 60.2271 40.9611C60.4122 41.2943 60.7083 41.2943 61.5596 40.8501C62.1518 40.554 62.7439 40.1469 62.855 39.9248C62.966 39.7398 62.7069 39.4807 62.3368 39.4067C61.9297 39.3326 61.2635 39.5547 60.7823 39.8878ZM165.97 60.6144C165.933 60.8364 166.377 61.7247 166.969 62.613C167.524 63.5013 168.19 64.1675 168.449 64.0935C168.745 64.0194 168.523 63.4273 167.783 62.3169C167.191 61.3916 166.525 60.5403 166.34 60.4293C166.155 60.3183 166.007 60.4293 165.97 60.6144ZM33.2456 74.9749C32.6904 75.086 32.1723 75.9372 31.173 78.7131C30.4327 80.6747 29.7295 82.8584 29.5815 83.5246C29.4704 84.2278 29.5074 84.709 29.7295 84.709C29.9762 84.709 29.9762 85.1161 29.7295 85.9304C29.5074 86.5596 29.3594 87.2998 29.3594 87.4849C29.3594 87.7316 29.4581 87.7316 29.6555 87.4849C29.8405 87.2998 30.2847 86.0044 30.6178 84.635C30.9509 83.2285 31.8392 80.5267 32.6164 78.5651C33.3566 76.6404 33.9858 75.0119 33.9858 74.9749C33.9858 74.9009 33.6527 74.9379 33.2456 74.9749ZM27.5458 91.8523C27.3607 92.2964 27.0276 94.184 26.7686 95.9976C26.5095 98.0332 26.4725 99.4027 26.6945 99.5137C26.8796 99.6247 27.1017 99.9578 27.2127 100.254C27.3237 100.55 27.5088 99.8098 27.6568 98.5884C27.8049 97.367 28.064 95.5904 28.286 94.6281C28.4711 93.6288 28.6191 92.4445 28.6191 91.9263C28.6191 91.4081 28.4341 91.001 28.249 91.001C28.027 91.001 27.7309 91.3711 27.5458 91.8523ZM185.512 101.697C185.549 102.623 185.771 103.733 185.956 104.14C186.215 104.658 186.252 104.325 186.104 102.956C185.993 101.771 186.067 100.994 186.289 100.994C186.474 100.994 186.622 100.772 186.585 100.513C186.548 100.217 186.289 99.9948 185.993 99.9948C185.549 99.9948 185.438 100.402 185.512 101.697ZM26.1394 108.137C26.2874 111.024 26.7315 115.133 27.1387 117.279C27.5828 119.426 28.101 121.351 28.286 121.536C28.5081 121.758 28.6191 121.61 28.6191 121.092C28.6191 120.524 28.7672 120.339 29.0633 120.536C29.3964 120.721 29.4334 120.499 29.2113 119.685C29.0633 119.093 28.6932 117.168 28.3971 115.429C28.101 113.689 27.6939 110.284 27.5088 107.841C27.3237 105.399 27.1387 103.289 27.1387 103.141C27.1387 102.956 26.8796 102.845 26.5095 102.845C25.9543 102.845 25.9173 103.363 26.1394 108.137ZM101.31 177.608C101.421 177.83 102.569 177.979 103.864 177.979C105.122 177.979 106.085 177.942 105.974 177.868C105.863 177.793 104.715 177.608 103.42 177.46C101.902 177.312 101.125 177.386 101.31 177.608Z" fill="#252E42"/>
<path opacity="0.53" d="M89.4294 84.1538C89.4294 85.5973 89.5033 86.0784 89.5771 85.2642C89.6509 84.4499 89.6509 83.2655 89.5771 82.6733C89.5033 82.0811 89.4294 82.7103 89.4294 84.1538Z" fill="#489EB2"/>
<path opacity="0.98" d="M121.074 35.0393C121 35.1873 118.669 37.482 115.893 40.1099C113.08 42.7377 110.896 45.0324 110.97 45.1805C111.081 45.3655 111.896 45.4766 112.821 45.4766C113.746 45.4766 115.041 45.7727 115.708 46.1058C116.337 46.4759 118.002 47.8453 119.409 49.1777C120.778 50.5102 121.889 51.7315 121.889 51.9536C121.889 52.1757 122.296 52.7309 122.814 53.249C123.369 53.7672 124.035 54.6925 124.331 55.2847C124.628 55.8769 124.85 56.7651 124.85 57.2093C124.85 57.6904 125.035 58.0605 125.22 58.0605C125.442 58.0605 125.59 59.2819 125.59 61.0215C125.59 63.9454 125.59 63.9824 126.515 63.9824C127.033 63.9824 127.959 64.3155 128.551 64.7227C129.365 65.2408 129.735 65.833 129.846 66.8323C129.957 67.6096 130.253 68.905 130.475 69.7192C130.697 70.5335 131.031 71.3478 131.179 71.5698C131.327 71.7919 131.623 72.8282 131.845 73.8646C132.067 74.9379 132.252 76.3814 132.252 77.0106C132.252 77.6768 132.585 78.7871 132.992 79.4163C133.621 80.4897 133.732 81.3039 133.732 85.6343C133.732 88.7062 133.88 90.6309 134.103 90.6309C134.325 90.6309 135.805 89.0764 137.471 87.1888C139.099 85.3382 141.246 82.5623 142.282 81.0818C143.281 79.6384 144.096 78.2689 144.096 78.0469C144.096 77.8248 143.8 77.6027 143.466 77.5287C143.096 77.4177 142.245 76.7515 141.616 76.0482C140.95 75.308 140.395 74.4197 140.395 74.0496C140.395 73.7165 140.172 72.8282 139.913 72.125C139.654 71.4218 139.247 70.4595 138.988 69.9783C138.729 69.5342 138.544 68.7199 138.544 68.1277C138.544 67.5726 138.211 66.4622 137.804 65.6479C137.397 64.8337 137.063 63.9454 137.063 63.6863C137.063 63.4643 136.656 62.576 136.138 61.7617C135.62 60.9475 135.213 59.9852 135.213 59.615C135.25 59.2819 134.954 58.7268 134.621 58.4307C134.288 58.1346 133.769 57.3573 133.473 56.7651C133.177 56.1729 132.622 55.0626 132.215 54.3594C131.808 53.6562 131.179 52.7309 130.808 52.3237C130.438 51.9166 129.994 51.1764 129.809 50.6582C129.661 50.14 129.069 49.0297 128.477 48.1414C127.922 47.2901 127.44 46.4759 127.44 46.2908C127.477 46.1428 127.218 45.7727 126.885 45.4766C126.552 45.1805 126.293 44.5513 126.33 44.0701C126.33 43.589 125.886 42.9228 125.22 42.4046C124.405 41.8124 124.109 41.2942 124.109 40.48C124.109 39.8878 123.628 38.3333 123.073 37.0379C122.518 35.7795 121.852 34.7432 121.63 34.7432C121.37 34.7432 121.148 34.8542 121.074 35.0023V35.0393Z" fill="#51B8CB"/>
<path opacity="0.44" d="M78.77 174.796C79.3622 175.055 80.4726 175.425 81.1758 175.61C81.953 175.758 82.3602 175.758 82.2491 175.536C82.1011 175.351 81.5089 175.092 80.9537 174.944C80.3615 174.796 79.3622 174.61 78.77 174.499L77.6597 174.277L78.77 174.796Z" fill="#252E42"/>
</svg>
